HIERARCHY
ROOT Hips
{
	OFFSET 0.00000 0.00000 0.00000
	CHANNELS 6 Xposition Yposition Zposition Zrotation Yrotation Xrotation 
	JOINT LHipJoint
	{
		OFFSET 0 0 0
		CHANNELS 3 Zrotation Yrotation Xrotation
		JOINT LeftHip
		{
			OFFSET 1.38691 -1.89057 0.78360
			CHANNELS 3 Zrotation Yrotation Xrotation
			JOINT LeftKnee
			{
				OFFSET 2.59731 -7.13606 0.00000
				CHANNELS 3 Zrotation Yrotation Xrotation
				JOINT LeftAnkle
				{
					OFFSET 2.70078 -7.42033 0.00000
					CHANNELS 3 Zrotation Yrotation Xrotation
					JOINT LeftToe
					{
						OFFSET 0.16751 -0.46024 2.68862
						CHANNELS 3 Zrotation Yrotation Xrotation
						End Site
						{
							OFFSET 0.00000 -0.00000 1.37057
						}
					}
				}
			}
		}
	}
	JOINT RHipJoint
	{
		OFFSET 0 0 0
		CHANNELS 3 Zrotation Yrotation Xrotation
		JOINT RightHip
		{
			OFFSET -1.38190 -1.89056 0.78359
			CHANNELS 3 Zrotation Yrotation Xrotation
			JOINT RightKnee
			{
				OFFSET -2.57785 -7.08258 0.00000
				CHANNELS 3 Zrotation Yrotation Xrotation
				JOINT RightAnkle
				{
					OFFSET -2.77908 -7.63547 0.00000
					CHANNELS 3 Zrotation Yrotation Xrotation
					JOINT RightToe
					{
						OFFSET -0.17921 -0.49237 2.62360
						CHANNELS 3 Zrotation Yrotation Xrotation
						End Site
						{
							OFFSET -0.00000 -0.00000 1.34085
						}
					}
				}
			}
		}
	}
	JOINT lowerback
	{
		OFFSET 0 0 0
		CHANNELS 3 Zrotation Yrotation Xrotation
		JOINT Chest
		{
			OFFSET -0.10749 2.04110 -0.22549
			CHANNELS 3 Zrotation Yrotation Xrotation
			JOINT Chest2
			{
				OFFSET 0.01213 2.05840 0.00691
				CHANNELS 3 Zrotation Yrotation Xrotation
				JOINT lowerneck
				{
					OFFSET 0 0 0
					CHANNELS 3 Zrotation Yrotation Xrotation
					JOINT Neck
					{
						OFFSET 0.06585 1.81215 0.35449
						CHANNELS 3 Zrotation Yrotation Xrotation
						JOINT Head
						{
							OFFSET -0.04315 1.87555 -0.27307
							CHANNELS 3 Zrotation Yrotation Xrotation
							End Site
							{
								OFFSET -0.01775 1.89740 -0.13294
							}
						}
					}
				}
				JOINT LeftCollar
				{
					OFFSET 0 0 0
					CHANNELS 3 Zrotation Yrotation Xrotation
					JOINT LeftShoulder
					{
						OFFSET 2.98012 1.63606 0.28888
CHANNELS 3 Zrotation Xrotation Yrotation
						JOINT LeftElbow
						{
OFFSET 0 -5.598640 -0.000000
CHANNELS 3 Zrotation Xrotation Yrotation
							JOINT LeftWrist
							{
OFFSET 0 -3.595420 -0.000000
CHANNELS 3 Zrotation Xrotation Yrotation
								JOINT lhand
								{
									OFFSET 0 0 0
CHANNELS 3 Zrotation Xrotation Yrotation
									JOINT LFingers
									{
OFFSET 0 -0.572010 -0.000000
CHANNELS 3 Zrotation Xrotation Yrotation
										End Site
										{
OFFSET 0 -0.461170 -0.000000
										}
									}
								}
								JOINT LThumb
								{
OFFSET 0 0.000000 0.000000
CHANNELS 3 Zrotation Xrotation Yrotation
									End Site
									{
OFFSET 0 -0.468210 0.468210
									}
								}
							}
						}
					}
				}
				JOINT RightCollar
				{
					OFFSET 0 0 0
					CHANNELS 3 Zrotation Yrotation Xrotation
					JOINT RightShoulder
					{
						OFFSET -3.08694 1.53706 0.36335
CHANNELS 3 Zrotation Xrotation Yrotation
						JOINT RightElbow
						{
OFFSET 0 -5.809400 -0.000000
CHANNELS 3 Zrotation Xrotation Yrotation
							JOINT RightWrist
							{
OFFSET 0 -3.669530 -0.000000
CHANNELS 3 Zrotation Xrotation Yrotation
								JOINT rhand
								{
									OFFSET 0 0 0
CHANNELS 3 Zrotation Xrotation Yrotation
									JOINT RFingers
									{
OFFSET 0 -0.578430 -0.000000
CHANNELS 3 Zrotation Xrotation Yrotation
										End Site
										{
OFFSET 0 -0.466350 -0.000000
										}
									}
								}
								JOINT RThumb
								{
OFFSET 0 0.000000 0.000000
CHANNELS 3 Zrotation Xrotation Yrotation
									End Site
									{
OFFSET 0 -0.473470 0.473470
									}
								}
							}
						}
					}
				}
			}
		}
	}
}
MOTION
Frames: 12
Frame Time: 0.008333333333333333
7.142200 18.364700 -32.051000 3.383500 31.217800 4.990100 0.000000 0.000000 0.000000 -25.230300 -31.605300 -6.600600 3.233200 11.063400 32.493900 3.394700 -4.743100 -33.872900 0.456500 -4.334100 -12.018600 0.000000 0.000000 0.000000 20.859400 8.464600 -4.780000 -2.888800 -10.512800 30.653800 -5.830400 6.895300 -44.765300 -1.439000 7.584100 -21.457700 -2.224900 1.994500 1.232600 2.392300 2.676200 -2.017000 3.607600 1.419500 -2.984300 14.395900 15.680900 -10.155200 -6.112300 21.295800 24.752400 -1.273800 10.451200 12.026100 0.000000 -0.000000 0.000000 -1.204500 6.518200 -42.352700 14.398400 -23.301300 2.983900 16.140000 -4.133000 -20.993300 0.000000 0.000000 0.000000 -7.125000 0.000000 0.000000 -12.609300 51.323300 1.990700 0.000000 -0.000000 0.000000 -1.308800 7.544500 -11.858600 -11.987000 -19.785100 -2.097900 -43.955700 12.305400 6.480500 0.000000 0.000000 0.000000 7.125000 0.000000 -0.000000 -14.823100 38.537400 -2.422800
7.140948 18.364529 -32.051114 3.366080 31.190418 4.976323 0.000000 0.000000 0.000000 -25.206618 -31.576722 -6.613124 3.233997 11.064595 32.497999 3.393903 -4.741506 -33.869200 0.459289 -4.347193 -12.055546 0.000000 0.000000 0.000000 20.879211 8.489478 -4.764288 -2.887035 -10.509897 30.644236 -5.828009 6.919267 -44.752491 -1.431030 7.563890 -21.397015 -2.148104 2.007366 1.229981 2.312942 2.692994 -2.024287 3.481390 1.424965 -2.983788 14.516303 15.670027 -10.126280 -6.160063 21.273541 24.743975 -1.311543 10.446589 12.036575 0.000000 0.000000 0.000000 -1.053925 6.582814 -42.489498 14.410469 -23.318378 2.988682 16.379611 -4.320294 -20.881436 0.000000 0.000000 0.000000 -7.125000 0.000000 0.000000 -12.332970 51.251343 1.924379 0.000000 0.000000 0.000000 -1.236501 7.588164 -11.989478 -12.023092 -19.839182 -2.110140 -43.986897 12.038577 6.503784 0.000000 0.000000 0.000000 7.125000 0.000000 0.000000 -14.854695 38.571329 -2.415456
7.139945 18.364594 -32.051546 3.350503 31.166070 4.968145 0.000000 0.000000 0.000000 -25.182853 -31.553645 -6.631246 3.234711 11.065666 32.501682 3.393161 -4.743279 -33.865181 0.460804 -4.354315 -12.075630 0.000000 0.000000 0.000000 20.893576 8.507441 -4.759217 -2.885326 -10.507090 30.634977 -5.823900 6.934504 -44.733682 -1.425734 7.550484 -21.356767 -2.074273 2.013026 1.223871 2.240859 2.700338 -2.029537 3.364977 1.425816 -2.979021 14.627630 15.664419 -10.093204 -6.215516 21.262991 24.729688 -1.349051 10.445885 12.045124 0.000000 0.000000 0.000000 -0.922610 6.642744 -42.599817 14.423300 -23.336538 2.993769 16.587643 -4.527139 -20.721809 0.000000 0.000000 0.000000 -7.125000 0.000000 0.000000 -12.069874 51.126066 1.845046 0.000000 0.000000 0.000000 -1.181135 7.633712 -12.083304 -12.069882 -19.909240 -2.126051 -43.984755 11.777616 6.569219 0.000000 0.000000 0.000000 7.125000 0.000000 0.000000 -14.864965 38.658079 -2.384751
7.139717 18.365391 -32.052970 3.340654 31.151154 4.977367 0.000000 0.000000 0.000000 -25.158829 -31.547668 -6.666770 3.235166 11.066349 32.504073 3.392592 -4.755519 -33.860171 0.458356 -4.342872 -12.043294 0.000000 0.000000 0.000000 20.891015 8.503911 -4.787226 -2.883789 -10.504585 30.626665 -5.814450 6.922606 -44.696224 -1.428752 7.558227 -21.380051 -2.009659 1.996289 1.206906 2.191388 2.678306 -2.028455 3.279015 1.412324 -2.961032 14.710746 15.675178 -10.047206 -6.294874 21.288836 24.697182 -1.385827 10.457328 12.047685 0.000000 0.000000 0.000000 -0.851165 6.688115 -42.627826 14.438499 -23.358057 2.999803 16.697514 -4.794759 -20.413714 0.000000 0.000000 0.000000 -7.125000 0.000000 0.000000 -11.847911 50.835049 1.725269 0.000000 0.000000 0.000000 -1.178402 7.685119 -12.061956 -12.149923 -20.028960 -2.153377 -43.878982 11.534874 6.765678 0.000000 0.000000 0.000000 7.125000 0.000000 0.000000 -14.808948 38.909019 -2.281426
7.138963 18.365634 -32.053589 3.339923 31.135907 4.984178 0.000000 0.000000 0.000000 -25.147387 -31.537644 -6.688963 3.235899 11.067476 32.507905 3.392411 -4.770862 -33.856547 0.455908 -4.331402 -12.010931 0.000000 0.000000 0.000000 20.886236 8.503486 -4.799217 -2.882058 -10.501720 30.617218 -5.810071 6.930578 -44.677111 -1.429385 7.559844 -21.384933 -1.963059 1.993880 1.194985 2.132246 2.674621 -2.030948 3.192167 1.408448 -2.951246 14.797824 15.670613 -10.033106 -6.349983 21.282784 24.691003 -1.417670 10.455912 12.060307 0.000000 0.000000 0.000000 -0.760044 6.737118 -42.684102 14.447603 -23.370929 3.003399 16.812014 -5.010278 -20.166753 0.000000 0.000000 0.000000 -7.125000 0.000000 0.000000 -11.645679 50.605693 1.628328 0.000000 0.000000 0.000000 -1.150645 7.722474 -12.169556 -12.204385 -20.110381 -2.172028 -43.808821 11.341877 6.894213 0.000000 0.000000 0.000000 7.125000 0.000000 0.000000 -14.771332 39.072968 -2.213878
7.137653 18.365292 -32.053361 3.348804 31.120308 4.988448 0.000000 0.000000 0.000000 -25.149209 -31.523355 -6.697104 3.236924 11.069070 32.513256 3.392639 -4.789478 -33.854384 0.453460 -4.319903 -11.978539 0.000000 0.000000 0.000000 20.879120 8.506332 -4.794321 -2.880122 -10.498475 30.606572 -5.811039 6.959498 -44.677339 -1.427507 7.555006 -21.370417 -1.935449 2.006575 1.188382 2.062907 2.690276 -2.037211 3.104383 1.414711 -2.950107 14.889080 15.649891 -10.052632 -6.379529 21.243105 24.712579 -1.444312 10.440939 12.083534 0.000000 0.000000 0.000000 -0.648180 6.789947 -42.770177 14.450278 -23.374686 3.004424 16.931392 -5.170872 -19.984241 0.000000 0.000000 0.000000 -7.125000 0.000000 0.000000 -11.464249 50.441341 1.555459 0.000000 0.000000 0.000000 -1.096506 7.745018 -12.413094 -12.231882 -20.151426 -2.181535 -43.776201 11.201321 6.951141 0.000000 0.000000 0.000000 7.125000 0.000000 0.000000 -14.753115 39.145210 -2.184048
7.135554 18.365574 -32.052676 3.322185 31.102465 4.971975 0.000000 0.000000 0.000000 -25.111165 -31.500129 -6.707073 3.238115 11.070913 32.519439 3.392243 -4.797077 -33.850973 0.452800 -4.316925 -11.970133 0.000000 0.000000 0.000000 20.920723 8.552327 -4.768516 -2.877896 -10.494732 30.594181 -5.806436 6.943356 -44.660315 -1.434233 7.571949 -21.421371 -1.952526 2.005843 1.089328 2.058957 2.688971 -1.973262 3.114787 1.411994 -2.828792 14.939639 15.650411 -10.058316 -6.500194 21.260418 24.649977 -1.489827 10.439436 12.084438 0.000000 0.000000 0.000000 -0.642817 6.733158 -42.796102 14.453203 -23.378859 3.005573 17.091966 -5.380934 -19.758372 0.000000 0.000000 0.000000 -7.125000 0.000000 0.000000 -11.229693 50.239203 1.467377 0.000000 0.000000 0.000000 -1.140471 7.687250 -12.527685 -12.280661 -20.224106 -2.198400 -43.643856 10.829931 6.964131 0.000000 0.000000 0.000000 7.125000 0.000000 0.000000 -14.638831 39.148945 -2.164818
7.133163 18.366086 -32.051823 3.282449 31.083793 4.947837 0.000000 0.000000 0.000000 -25.058393 -31.473600 -6.717719 3.239367 11.072849 32.525929 3.391617 -4.800607 -33.847102 0.452800 -4.317095 -11.970588 0.000000 0.000000 0.000000 20.980327 8.614265 -4.734985 -2.875562 -10.490804 30.581144 -5.799776 6.910565 -44.636918 -1.444139 7.596940 -21.496517 -1.986114 2.000150 0.956116 2.079167 2.681400 -1.883372 3.161468 1.405959 -2.663074 14.975162 15.658779 -10.058885 -6.654527 21.298787 24.556273 -1.542315 10.442908 12.077094 0.000000 0.000000 0.000000 -0.676803 6.635868 -42.799802 14.456220 -23.383186 3.006768 17.267760 -5.609273 -19.516484 0.000000 0.000000 0.000000 -7.125000 0.000000 0.000000 -10.975509 50.023104 1.373673 0.000000 0.000000 0.000000 -1.220683 7.599808 -12.594633 -12.337305 -20.308473 -2.217983 -43.474665 10.373253 6.960886 0.000000 0.000000 0.000000 7.125000 0.000000 0.000000 -14.489053 39.127369 -2.149504
7.131437 18.366266 -32.051467 3.264939 31.065785 4.939163 0.000000 0.000000 0.000000 -25.029232 -31.454443 -6.733464 3.240896 11.075172 32.533749 3.391323 -4.811508 -33.843730 0.452135 -4.313996 -11.961732 0.000000 0.000000 0.000000 21.005068 8.639511 -4.722793 -2.873172 -10.486820 30.567941 -5.794723 6.903659 -44.616956 -1.448169 7.607133 -21.527100 -1.976026 1.999279 0.896398 2.051433 2.679925 -1.847911 3.130110 1.403195 -2.590914 15.042057 15.658058 -10.053136 -6.750108 21.308169 24.514115 -1.583052 10.442335 12.081833 0.000000 0.000000 0.000000 -0.634911 6.623878 -42.835317 14.463616 -23.393609 3.009738 17.411962 -5.834786 -19.288231 0.000000 0.000000 0.000000 -7.125000 0.000000 0.000000 -10.759845 49.814597 1.291276 0.000000 0.000000 0.000000 -1.230726 7.586082 -12.687963 -12.381367 -20.373996 -2.233299 -43.389389 10.088118 7.013510 0.000000 0.000000 0.000000 7.125000 0.000000 0.000000 -14.423189 39.188101 -2.117230
7.129692 18.366449 -32.051089 3.247944 31.047833 4.930884 0.000000 0.000000 0.000000 -25.000451 -31.435486 -6.749384 3.242446 11.077544 32.541753 3.391051 -4.822955 -33.840433 0.451427 -4.310660 -11.952253 0.000000 0.000000 0.000000 21.029136 8.663380 -4.710994 -2.870682 -10.482675 30.554240 -5.789725 6.896687 -44.597237 -1.452089 7.617011 -21.556759 -1.965162 1.998502 0.839390 2.022498 2.678566 -1.814196 3.096932 1.400544 -2.521995 15.109480 15.657152 -10.047166 -6.844368 21.316988 24.473108 -1.623496 10.441701 12.086801 0.000000 0.000000 0.000000 -0.591766 6.614027 -42.870236 14.471143 -23.404223 3.012755 17.555357 -6.064125 -19.055962 0.000000 0.000000 0.000000 -7.125000 0.000000 0.000000 -10.544447 49.601615 1.208778 0.000000 0.000000 0.000000 -1.238286 7.575183 -12.780131 -12.424310 -20.437835 -2.248251 -43.306907 9.808929 7.065165 0.000000 0.000000 0.000000 7.125000 0.000000 0.000000 -14.359564 39.247814 -2.085732
7.127814 18.366677 -32.050576 3.230638 31.030015 4.922516 0.000000 0.000000 0.000000 -24.970735 -31.416529 -6.765438 3.244040 11.080048 32.550292 3.390823 -4.835650 -33.837359 0.450630 -4.306789 -11.941436 0.000000 0.000000 0.000000 21.054184 8.685866 -4.698527 -2.867836 -10.477950 30.538755 -5.784772 6.886953 -44.578052 -1.456188 7.627202 -21.587443 -1.955768 1.997591 0.784966 1.993920 2.677029 -1.781463 3.064825 1.397982 -2.455617 15.175744 15.656469 -10.041018 -6.939609 21.326609 24.431208 -1.664029 10.441246 12.091412 0.000000 0.000000 0.000000 -0.551518 6.603552 -42.899896 14.478715 -23.414925 3.015772 17.698930 -6.307550 -18.807868 0.000000 0.000000 0.000000 -7.125000 0.000000 0.000000 -10.326242 49.371739 1.124809 0.000000 0.000000 0.000000 -1.243751 7.567270 -12.865523 -12.464444 -20.497438 -2.262313 -43.226296 9.534422 7.107862 0.000000 0.000000 0.000000 7.125000 0.000000 0.000000 -14.295804 39.295805 -2.058691
7.125830 18.366879 -32.049959 3.212624 31.012406 4.913518 0.000000 0.000000 0.000000 -24.940075 -31.397257 -6.780522 3.245398 11.082160 32.557469 3.390517 -4.846851 -33.833970 0.449990 -4.303756 -11.932927 0.000000 0.000000 0.000000 21.080831 8.709349 -4.685772 -2.865252 -10.473670 30.524686 -5.780632 6.877533 -44.562196 -1.459606 7.635740 -21.613121 -1.944698 1.997257 0.734894 1.963665 2.676226 -1.751140 3.029834 1.395814 -2.394088 15.243031 15.655261 -10.034607 -7.033120 21.334998 24.390777 -1.704352 10.440528 12.096364 0.000000 0.000000 0.000000 -0.509225 6.595384 -42.926882 14.486496 -23.425916 3.018868 17.839383 -6.551762 -18.559880 0.000000 0.000000 0.000000 -7.125000 0.000000 0.000000 -10.112649 49.140893 1.043094 0.000000 0.000000 0.000000 -1.244446 7.562764 -12.950758 -12.501302 -20.552141 -2.275247 -43.151505 9.269271 7.145185 0.000000 0.000000 0.000000 7.125000 0.000000 0.000000 -14.236186 39.337269 -2.034743
